<svg width="144" height="86" viewBox="0 0 144 86" fill="none" xmlns="http://www.w3.org/2000/svg">
<path d="M87.1042 81.7433C92.9737 81.7433 97.7319 76.9851 97.7319 71.1155C97.7319 65.246 92.9737 60.4878 87.1042 60.4878C81.2346 60.4878 76.4764 65.246 76.4764 71.1155C76.4764 76.9851 81.2346 81.7433 87.1042 81.7433Z" fill="#3F3D56"/>
<path d="M87.1042 78.2006C91.0172 78.2006 94.1894 75.0285 94.1894 71.1154C94.1894 67.2024 91.0172 64.0303 87.1042 64.0303C83.1912 64.0303 80.019 67.2024 80.019 71.1154C80.019 75.0285 83.1912 78.2006 87.1042 78.2006Z" fill="#B8D4FF"/>
<path d="M87.1042 75.15C89.3324 75.15 91.1388 73.3437 91.1388 71.1154C91.1388 68.8872 89.3324 67.0808 87.1042 67.0808C84.8759 67.0808 83.0696 68.8872 83.0696 71.1154C83.0696 73.3437 84.8759 75.15 87.1042 75.15Z" fill="#3F3D56"/>
<path d="M25.6994 81.7433C31.5689 81.7433 36.3271 76.9851 36.3271 71.1155C36.3271 65.246 31.5689 60.4878 25.6994 60.4878C19.8299 60.4878 15.0717 65.246 15.0717 71.1155C15.0717 76.9851 19.8299 81.7433 25.6994 81.7433Z" fill="#3F3D56"/>
<path d="M25.6995 78.2006C29.6126 78.2006 32.7847 75.0285 32.7847 71.1154C32.7847 67.2024 29.6126 64.0303 25.6995 64.0303C21.7865 64.0303 18.6144 67.2024 18.6144 71.1154C18.6144 75.0285 21.7865 78.2006 25.6995 78.2006Z" fill="#B8D4FF"/>
<path d="M101.643 66.0613C100.259 62.5719 95.4214 51.9107 86.805 48.3819C86.7381 48.3543 86.6693 48.3366 86.5984 48.3267L58.9643 44.3689C58.5097 44.3039 58.0846 44.6149 58.0117 45.0695L57.5276 48.0611C57.4941 48.2657 57.5374 48.4763 57.6496 48.6515C59.0529 50.8282 68.0471 65.6067 53.6445 65.6067C39.242 65.6067 35.2723 55.2997 34.6425 53.4792C34.5835 53.308 34.5815 53.123 34.6346 52.9498L38.9999 39.1239C39.0766 38.8779 39.0353 38.626 38.9094 38.4252L40.8283 34.861L44.3433 36.8508L46.1638 36.8724L52.3771 40.1198L53.6426 38.0533L40.8283 31.6609C40.8283 31.6609 40.8499 30.1809 36.7169 29L30.2222 26.0479L29.4349 27.0319L31.403 28.6064L31.5998 29.7872L32.9775 30.1809L35.7328 35.4947L34.9456 37.018L35.9021 37.4845L35.6285 37.4215C35.2329 37.331 34.8295 37.5357 34.6681 37.9076L30.3265 47.8583C30.2596 48.0099 30.1493 48.1398 30.0096 48.2303L28.4627 49.2281C28.319 49.3206 28.2049 49.4564 28.1399 49.6159L26.3726 53.9004C26.3175 54.0342 26.3017 54.174 26.3155 54.3098C24.1132 54.727 17.6401 56.5298 14.0837 63.6405L18.2168 66.9863C18.2168 66.9863 24.6957 62.7943 35.4022 67.1595C37.264 70.0565 39.978 72.4596 43.8985 72.6859C54.233 73.2842 71.3555 73.8747 73.3236 71.5129C74.7642 69.783 75.766 68.7045 76.2009 68.2498C76.3544 68.0904 76.5631 67.9979 76.7835 67.99L100.883 67.2205C101.467 67.2028 101.855 66.6084 101.641 66.0652L101.643 66.0613Z" fill="#0066FF"/>
<path d="M35.1464 35.0992C36.8855 35.0992 38.2954 33.6894 38.2954 31.9502C38.2954 30.2111 36.8855 28.8013 35.1464 28.8013C33.4073 28.8013 31.9974 30.2111 31.9974 31.9502C31.9974 33.6894 33.4073 35.0992 35.1464 35.0992Z" fill="#3F3D56"/>
<path d="M85.575 48.3957C85.5376 48.3957 85.5002 48.3957 85.4628 48.3937L59.1336 47.3743C57.9685 47.329 56.9706 46.587 56.5908 45.4849L56.2306 44.4359C55.9374 43.5817 56.0653 42.6646 56.5809 41.9226C57.0986 41.1806 57.9134 40.7437 58.8167 40.7221L86.0198 40.0962C86.8621 40.0765 87.673 40.4367 88.2221 41.0862C88.7712 41.7357 88.9956 42.5859 88.8361 43.4223L88.3225 46.1147C88.0686 47.451 86.9212 48.3937 85.573 48.3937L85.575 48.3957Z" fill="#3F3D56"/>
<path d="M25.6994 75.15C27.9277 75.15 29.734 73.3437 29.734 71.1154C29.734 68.8872 27.9277 67.0808 25.6994 67.0808C23.4711 67.0808 21.6648 68.8872 21.6648 71.1154C21.6648 73.3437 23.4711 75.15 25.6994 75.15Z" fill="#3F3D56"/>
<path d="M96.1535 59.6297C95.5237 59.6297 94.9234 59.2931 94.6026 58.7125L92.6089 55.103C92.2921 54.5303 92.3118 53.8592 92.6581 53.3062C93.0045 52.7512 93.6028 52.4402 94.2523 52.4756L97.8716 52.6606C98.5447 52.6961 99.1509 53.1192 99.4146 53.7411L100.472 56.2406C100.664 56.6992 100.66 57.1991 100.458 57.6537C100.255 58.1064 99.885 58.4468 99.4166 58.6082L96.7361 59.5332C96.5451 59.6002 96.3483 59.6316 96.1555 59.6316L96.1535 59.6297Z" fill="#3F3D56"/>
<path d="M50.3853 83.6187C50.3558 83.6187 50.3243 83.6187 50.2947 83.6128L49.4918 83.5242C49.23 83.4947 49.0017 83.3471 48.8679 83.1188C48.734 82.8905 48.7163 82.6209 48.8187 82.3768L52.9989 72.4497C53.1131 72.1781 53.3669 71.9852 53.6602 71.9478C53.9456 71.9124 54.2231 72.0246 54.4061 72.247C54.5872 72.4694 54.6423 72.7646 54.5498 73.0362L51.1745 83.0519C51.0603 83.3904 50.7376 83.6167 50.3872 83.6167L50.3853 83.6187Z" fill="#3F3D56"/>
<path d="M102.048 80.5093L104.164 80.0527L103.406 71.6804L100.286 72.3535L102.048 80.5093Z" fill="#FFCECE"/>
<path d="M109.283 78.8971C109.373 78.9935 109.485 79.3439 109.513 79.4738C109.6 79.8693 109.348 80.261 108.95 80.3456L102.402 81.7607C102.133 81.8197 101.865 81.6465 101.806 81.3769L101.747 81.1033C101.747 81.1033 101.245 80.3535 101.694 79.2002C101.694 79.2002 102.694 79.8123 103.664 78.3047L103.886 77.5647L106.949 78.9266L108.452 78.7908C108.781 78.7613 109.056 78.6531 109.281 78.8971H109.283Z" fill="#2F2E41"/>
<path d="M105.831 79.8695L107.594 78.6178L103.605 71.2178L101.001 73.0639L105.831 79.8695Z" fill="#FFCECE"/>
<path d="M111.847 75.5397C111.967 75.5929 112.209 75.8704 112.284 75.9786C112.518 76.3093 112.441 76.7678 112.111 77.002L106.647 80.8792C106.421 81.0386 106.11 80.9855 105.949 80.7611L105.787 80.5328C105.787 80.5328 105.032 80.0408 104.99 78.8028C104.99 78.8028 106.149 78.9721 106.451 77.2047L106.364 76.4372L109.716 76.4844L111.046 75.768C111.337 75.6106 111.548 75.4039 111.849 75.5397H111.847Z" fill="#2F2E41"/>
<path d="M80.4165 38.4705C80.4165 38.4705 77.1278 42.942 83.7052 47.9705L97.1375 43.6781L92.3393 33.6723L88.0902 31.342L80.4146 38.4685L80.4165 38.4705Z" fill="#2F2E41"/>
<path d="M97.1396 43.6802L102.347 53.8219L105.638 74.9317L101.527 75.2053L97.4132 55.1936L90.1489 44.3651L95.2207 42.0349" fill="#2F2E41"/>
<path d="M83.7073 44.7861V47.9725L93.0282 58.2086C93.0282 58.2086 93.0282 65.8842 96.5924 69.4484L100.704 75.7542L104.268 73.8353L99.0604 55.469L89.7395 43.4065L83.7092 44.7861H83.7073Z" fill="#2F2E41"/>
<path d="M90.3299 13.2002L88.5744 19.8937L81.8809 18.577C81.8809 18.577 86.5512 13.7611 85.8938 11.5667L90.3319 13.2002H90.3299Z" fill="#FFCECE"/>
<path d="M85.2148 14.2097L89.3262 16.1286C89.3262 16.1286 91.4419 17.4217 91.4812 18.2837C91.5206 19.1457 91.2451 23.2571 91.2451 23.2571C91.2451 23.2571 92.8904 24.9024 91.7942 28.1911L92.3433 33.6742L80.0072 40.2536L81.1034 28.7402L80.5543 18.0495L85.2148 14.2117V14.2097Z" fill="#3F3D56"/>
<path d="M81.5246 45.408C82.0068 46.5122 82.9672 47.1597 83.6699 46.8526C84.3725 46.5456 84.5516 45.4021 84.0714 44.298C83.8844 43.8532 83.5951 43.4616 83.2251 43.1526L81.1251 38.498L78.9622 39.5293L81.2609 44.0087C81.2353 44.4889 81.3259 44.9692 81.5246 45.408Z" fill="#FFCECE"/>
<path d="M83.7072 18.7345C83.7072 18.7345 80.6921 16.8156 79.5958 19.0081C78.4996 21.2005 76.0316 32.4403 76.0316 32.4403L79.5958 43.1311L82.8845 41.7613L80.0052 30.2558L83.7052 18.7345H83.7072Z" fill="#3F3D56"/>
<path d="M99.1628 43.682C100.017 44.5323 101.149 44.7802 101.69 44.2351C102.231 43.6899 101.975 42.5622 101.121 41.712C100.784 41.3676 100.369 41.1097 99.9126 40.9582L96.2461 37.4038L94.6145 39.1594L98.4011 42.4756C98.5546 42.9322 98.8164 43.3455 99.1628 43.6801V43.682Z" fill="#FFCECE"/>
<path d="M91.3651 18.079C91.3651 18.079 86.1083 17.8645 85.8957 20.3069C85.6852 22.7493 89.2789 33.6487 89.2789 33.6487L96.5314 42.2748L99.084 39.7891L92.1701 30.1533L91.3671 18.079H91.3651Z" fill="#3F3D56"/>
<path d="M93.1876 9.62216C93.1876 12.1453 91.1427 14.1901 88.6196 14.1901C86.0965 14.1901 84.0516 12.1453 84.0516 9.62216C84.0516 7.09906 86.0965 5.0542 88.6196 5.0542C91.1427 5.0542 93.1876 7.09906 93.1876 9.62216Z" fill="#FFCECE"/>
<path d="M88.2555 3.48163C88.3874 3.55839 88.5645 3.44227 88.6078 3.29466C88.6511 3.14706 88.5999 2.99158 88.5527 2.84594C88.47 2.60189 88.3893 2.35982 88.3067 2.11577C88.1315 1.59816 87.9465 1.06284 87.5686 0.669217C86.9979 0.0748506 86.0886 -0.0766932 85.2718 0.0335205C84.2228 0.175224 83.1876 0.742037 82.6995 1.68279C82.2115 2.62354 82.4201 3.9343 83.3018 4.52079C82.0442 5.96144 81.6072 7.56741 81.6761 9.47647C81.745 11.3875 83.8273 13.145 85.1852 14.4912C85.4883 14.3082 85.7639 13.4461 85.5966 13.1332C85.4293 12.8203 85.6694 12.4581 85.4628 12.1688C85.2561 11.8815 85.0829 12.3401 85.2915 12.0527C85.4234 11.8716 84.9097 11.4564 85.1046 11.3481C86.0512 10.8246 86.3661 9.64375 86.9605 8.7404C87.6788 7.65007 88.905 6.91203 90.2059 6.79001C90.9223 6.72309 91.678 6.84512 92.2645 7.26038C92.851 7.67565 93.2308 8.41763 93.095 9.12418C93.4473 8.76598 93.6225 8.24247 93.5576 7.74454C93.4906 7.24661 93.1856 6.78607 92.7506 6.53219C93.0144 5.66032 92.788 4.65659 92.1759 3.9835C91.5639 3.30844 89.0821 3.42456 88.1886 3.60169L88.2575 3.4836L88.2555 3.48163Z" fill="#2F2E41"/>
<path d="M88.1178 6.81567C86.935 6.9436 86.0808 7.96898 85.3585 8.91564C84.9433 9.4608 84.5063 10.063 84.5182 10.7499C84.528 11.4427 84.9925 12.039 85.2149 12.6944C85.577 13.769 85.2247 15.0463 84.3627 15.7823C85.2149 15.9437 86.1359 15.3061 86.2816 14.4499C86.4528 13.456 85.699 12.4956 85.7876 11.4899C85.8663 10.6043 86.565 9.9233 87.1574 9.26005C87.7517 8.5968 88.3087 7.71903 88.0351 6.87275L88.1178 6.81567Z" fill="#2F2E41"/>
</svg>
